<svg xmlns="http://www.w3.org/2000/svg" xmlns:xlink="http://www.w3.org/1999/xlink" width="296.655" height="410.688" viewBox="0 0 296.655 410.688">
  <defs>
    <clipPath id="clip-path">
      <rect id="長方形_204" data-name="長方形 204" width="237.959" height="217.723" fill="none"/>
    </clipPath>
  </defs>
  <g id="crowd" transform="translate(-1131.243 -6392.793)">
    <g id="装飾">
      <g id="クラファン惑星" transform="translate(4183.695 6001.236) rotate(-8)">
        <path id="パス_8337" data-name="パス 8337" d="M126.759,145.891A13.544,13.544,0,1,1,113.216,132.1a13.669,13.669,0,0,1,13.542,13.791" transform="translate(-3070.331 30.605)" fill="#c1c1c1"/>
        <g id="雲_奥" transform="translate(-3008.489 144.456) rotate(9)">
          <rect id="長方形_203" data-name="長方形 203" width="55.342" height="11.95" transform="translate(10.956 29.537)" fill="#eaeaea"/>
          <path id="パス_8335" data-name="パス 8335" d="M40.677,18.5c0,10.218-9.106,18.5-20.338,18.5S0,28.721,0,18.5,9.106,0,20.339,0,40.677,8.284,40.677,18.5" transform="translate(25.621 0)" fill="#eaeaea"/>
          <path id="パス_8336" data-name="パス 8336" d="M21.911,11.157A11.057,11.057,0,0,1,10.956,22.313,11.057,11.057,0,0,1,0,11.157,11.057,11.057,0,0,1,10.956,0,11.057,11.057,0,0,1,21.911,11.157" transform="translate(0 19.174)" fill="#eaeaea"/>
          <path id="パス_8338" data-name="パス 8338" d="M27.171,13.276A13.433,13.433,0,0,1,13.586,26.553,13.433,13.433,0,0,1,0,13.276,13.433,13.433,0,0,1,13.586,0,13.433,13.433,0,0,1,27.171,13.276" transform="translate(10.556 8.174)" fill="#eaeaea"/>
        </g>
        <g id="ハート" transform="translate(-3051.436 -0.003)">
          <path id="四角" d="M140.185,208.425,50.663,117.256,149.228,16.878l98.566,100.378-89.523,91.169a12.625,12.625,0,0,1-18.086,0" transform="translate(-30.251 3.911)" fill="#973619"/>
          <path id="丸右" d="M233.093,121.167a68.808,68.808,0,0,1-98.565,0,71.9,71.9,0,0,1,0-100.378,68.808,68.808,0,0,1,98.565,0,71.9,71.9,0,0,1,0,100.378" transform="translate(-15.549 0.001)" fill="#973619"/>
          <path id="丸左" d="M153.069,121.167a68.808,68.808,0,0,1-98.565,0,71.9,71.9,0,0,1,0-100.378,68.808,68.808,0,0,1,98.565,0,71.9,71.9,0,0,1,0,100.378" transform="translate(-34.091 0.001)" fill="#973619"/>
        </g>
        <g id="グループ_8616" data-name="グループ 8616" transform="translate(-3051.437 -0.002)" opacity="0.25">
          <g id="グループ_8615" data-name="グループ 8615">
            <g id="グループ_8614" data-name="グループ 8614" clip-path="url(#clip-path)">
              <path id="パス_8342" data-name="パス 8342" d="M178.04,145.46c-45.691,0-85.041-27.638-102.817-67.392l-24.56,25.011,92.158,93.854a8.947,8.947,0,0,0,12.816,0L211.1,140.447a111.043,111.043,0,0,1-33.062,5.013" transform="translate(-30.25 18.088)" fill="#070303"/>
              <path id="パス_8343" data-name="パス 8343" d="M68.961,47.546A116.5,116.5,0,0,1,77.21,4.341,69.4,69.4,0,0,0,54.5,19.783a71.906,71.906,0,0,0,0,100.379,68.81,68.81,0,0,0,60.3,19.9A115.513,115.513,0,0,1,68.961,47.546" transform="translate(-34.09 1.006)" fill="#070303"/>
            </g>
          </g>
        </g>
        <g id="グループ_8693" data-name="グループ 8693" transform="translate(-3087.087 32.989) rotate(8)">
          <rect id="長方形_205" data-name="長方形 205" width="91.217" height="19.696" transform="translate(18.057 48.684)" fill="#fff"/>
          <path id="パス_8344" data-name="パス 8344" d="M67.044,30.5c0,16.842-15.008,30.5-33.522,30.5S0,47.338,0,30.5,15.008,0,33.522,0,67.044,13.653,67.044,30.5" transform="translate(42.23 0)" fill="#fff"/>
          <path id="パス_8345" data-name="パス 8345" d="M36.113,18.389A18.226,18.226,0,0,1,18.057,36.778,18.225,18.225,0,0,1,0,18.389,18.225,18.225,0,0,1,18.057,0,18.226,18.226,0,0,1,36.113,18.389" transform="translate(0 31.602)" fill="#fff"/>
          <path id="パス_8346" data-name="パス 8346" d="M44.641,22.731A22.528,22.528,0,0,1,22.321,45.462,22.529,22.529,0,0,1,0,22.731,22.529,22.529,0,0,1,22.321,0,22.528,22.528,0,0,1,44.641,22.731" transform="translate(86.953 22.918)" fill="#fff"/>
          <path id="パス_8347" data-name="パス 8347" d="M44.786,21.882A22.142,22.142,0,0,1,22.393,43.765,22.142,22.142,0,0,1,0,21.882,22.142,22.142,0,0,1,22.393,0,22.142,22.142,0,0,1,44.786,21.882" transform="translate(17.398 13.472)" fill="#fff"/>
        </g>
        <g id="グループ_8621" data-name="グループ 8621" transform="translate(-2910.73 74.33) rotate(8)">
          <rect id="長方形_206" data-name="長方形 206" width="74.828" height="16.157" transform="translate(14.813 39.936)" fill="#fff"/>
          <path id="パス_8348" data-name="パス 8348" d="M55,25.017c0,13.816-12.312,25.017-27.5,25.017S0,38.833,0,25.017,12.312,0,27.5,0,55,11.2,55,25.017" transform="translate(34.643 0)" fill="#fff"/>
          <path id="パス_8349" data-name="パス 8349" d="M29.625,15.085A14.95,14.95,0,0,1,14.812,30.169,14.95,14.95,0,0,1,0,15.085,14.95,14.95,0,0,1,14.812,0,14.95,14.95,0,0,1,29.625,15.085" transform="translate(0 25.925)" fill="#fff"/>
          <path id="パス_8350" data-name="パス 8350" d="M36.621,18.647A18.481,18.481,0,0,1,18.31,37.293,18.481,18.481,0,0,1,0,18.647,18.481,18.481,0,0,1,18.31,0a18.481,18.481,0,0,1,18.31,18.647" transform="translate(71.33 18.801)" fill="#fff"/>
          <path id="パス_8351" data-name="パス 8351" d="M36.739,17.951A18.164,18.164,0,0,1,18.369,35.9,18.164,18.164,0,0,1,0,17.951,18.164,18.164,0,0,1,18.369,0,18.164,18.164,0,0,1,36.739,17.951" transform="translate(14.272 11.052)" fill="#fff"/>
        </g>
      </g>
    </g>
    <g id="テキスト" transform="translate(0 95.5)">
      <text id="クラウド_ファンディング" data-name="クラウド
ファンディング" transform="translate(1288 6621.982)" fill="#fff" font-size="50" font-family="Corporate-Logo-Bold-ver2, Corporate Logo ver2"><tspan x="-74.975" y="0">クラウド</tspan><tspan x="-127.575" y="70">ファンディング</tspan></text>
    </g>
  </g>
</svg>
