<svg xmlns="http://www.w3.org/2000/svg" xmlns:xlink="http://www.w3.org/1999/xlink" width="236.709" height="412.03" viewBox="0 0 236.709 412.03">
  <defs>
    <clipPath id="clip-path">
      <rect id="長方形_202" data-name="長方形 202" width="236.709" height="237.052" fill="#5aa954"/>
    </clipPath>
    <clipPath id="clip-path-2">
      <rect id="長方形_201" data-name="長方形 201" width="236.709" height="237.052" fill="none"/>
    </clipPath>
    <clipPath id="clip-path-3">
      <rect id="長方形_200" data-name="長方形 200" width="222.699" height="213.705" fill="none"/>
    </clipPath>
  </defs>
  <g id="fieldwork" transform="translate(-505 -6391.451)">
    <g id="装飾">
      <g id="FW惑星" transform="translate(505 6391.451)">
        <g id="グループ_8612" data-name="グループ 8612" clip-path="url(#clip-path)">
          <g id="グループ_8611" data-name="グループ 8611">
            <g id="グループ_8610" data-name="グループ 8610" clip-path="url(#clip-path-2)">
              <path id="パス_8332" data-name="パス 8332" d="M91.428,3a118.838,118.838,0,0,1,52.833,231.73c-17.85,4.07-44.134,3.245-69.256-6.1A114.734,114.734,0,0,1,41.424,209.88c-24.37-19.845-36-46.885-39.445-64.6C-8.3,92.415,21.458,18.953,91.428,3" transform="translate(0 0)" fill="#fff"/>
              <path id="パス_8333" data-name="パス 8333" d="M1.985,145.356c3.443,17.715,15.072,44.755,39.442,64.6A114.751,114.751,0,0,0,74.981,228.7l-.614-4.849a1.533,1.533,0,0,0-.029-.153,67.873,67.873,0,0,1-.9-28.124c2.947-16.271,11.185-26.833,16.617-33.8,5.367-6.876,12.243-15.5,24.425-21.372,4.368-2.107,11.88-5.622,21.9-5.172a41.867,41.867,0,0,1,14.629,3.413q.769.333,1.5.684a7.459,7.459,0,0,1,1.537,12.48q-7.1,5.856-14.2,11.713a1.441,1.441,0,0,0,1.217,2.52,19.436,19.436,0,0,1,6.525-.34c2.577.313,3.924,1.024,13.961,5.161,6.2,2.557,9.3,3.837,9.787,3.985,11.649,3.573,28.122-2.7,36.048-14.788,2.582-3.941,5.553-8.468,4.264-13.225-2.051-7.577-11.812-25.474-29.075-20.449-12.655,3.685-17.152.44-23.583-4.655-1.326-1.051-4.509-3.265-10.126-11.185S137.8,94.939,133.385,83.533c-5.264-13.6-6.111-24.891-6.629-32.581-.575-8.539-1.412-22.788,3.472-39.677,1.817-6.286,3.105-8.373,3.4-10.148A118.577,118.577,0,0,0,91.432,3.076C21.464,19.027-8.3,92.491,1.985,145.356" transform="translate(0.004 0.055)" fill="rgba(73,134,81,0.85)"/>
              <g id="グループ_8609" data-name="グループ 8609" transform="translate(0.009 23.347)" opacity="0.25">
                <g id="グループ_8608" data-name="グループ 8608">
                  <g id="グループ_8607" data-name="グループ 8607" clip-path="url(#clip-path-3)">
                    <path id="パス_8334" data-name="パス 8334" d="M148.507,192.33A118.836,118.836,0,0,1,29.942,73.221c.037-16.48,5.477-38.729,17.319-59.333A114.757,114.757,0,0,0,21.5,42.363C6.753,64.746.046,90.175.006,108.482a118.848,118.848,0,0,0,222.7,58.053,118.332,118.332,0,0,1-74.2,25.8" transform="translate(-0.005 -13.886)" fill="#1a1311"/>
                  </g>
                </g>
              </g>
              <g id="グループ_8778" data-name="グループ 8778" transform="translate(-520.678 -325.627)" opacity="0.25">
                <g id="グループ_8608-2" data-name="グループ 8608">
                  <g id="グループ_8607-2" data-name="グループ 8607" clip-path="url(#clip-path-3)">
                    <path id="パス_8334-2" data-name="パス 8334" d="M148.507,192.33A118.836,118.836,0,0,1,29.942,73.221c.037-16.48,5.477-38.729,17.319-59.333A114.757,114.757,0,0,0,21.5,42.363C6.753,64.746.046,90.175.006,108.482a118.848,118.848,0,0,0,222.7,58.053,118.332,118.332,0,0,1-74.2,25.8" transform="translate(-0.005 -13.886)" fill="#1a1311"/>
                  </g>
                </g>
              </g>
            </g>
          </g>
        </g>
      </g>
    </g>
    <g id="テキスト" transform="translate(0 95.5)">
      <text id="フィールド_ワーク" data-name="フィールド
ワーク" transform="translate(627 6621.981)" fill="#fff" font-size="50" font-family="Corporate-Logo-Bold-ver2, Corporate Logo ver2"><tspan x="-86.375" y="0">フィールド</tspan><tspan x="-52.45" y="70">ワーク</tspan></text>
    </g>
  </g>
</svg>
