<svg id="_-1._トップバー" data-name="-1. トップバー" xmlns="http://www.w3.org/2000/svg" xmlns:xlink="http://www.w3.org/1999/xlink" width="428" height="56" viewBox="0 0 428 56">
  <defs>
    <clipPath id="clip-path">
      <rect id="長方形_263" data-name="長方形 263" width="51.832" height="50.583" fill="none"/>
    </clipPath>
  </defs>
  <path id="背景" d="M0,0H428V56H0Z"/>
  <g id="グループ_8780" data-name="グループ 8780" transform="translate(188.084 11.709)">
    <g id="グループ_8779" data-name="グループ 8779" clip-path="url(#clip-path)">
      <path id="パス_8451" data-name="パス 8451" d="M83.162,16.684c0,.118,0,.236,0,.352a14.685,14.685,0,1,0-5.943,12.182,16.184,16.184,0,1,1,5.947-12.534" transform="translate(-39.877 -0.393)" fill="#fff"/>
      <path id="パス_8452" data-name="パス 8452" d="M83.162,16.684c0,.118,0,.236,0,.352a14.685,14.685,0,1,0-5.943,12.182,16.184,16.184,0,1,1,5.947-12.534Z" transform="translate(-39.877 -0.393)" fill="none" stroke="#fff" stroke-miterlimit="10" stroke-width="1"/>
      <path id="パス_8453" data-name="パス 8453" d="M140.584,31.881a21.048,21.048,0,0,0-11.761-12.006,22.466,22.466,0,0,0-2.73-.95,15.717,15.717,0,0,1,14.49,12.956" transform="translate(-98.993 -14.858)" fill="#fff"/>
      <path id="パス_8454" data-name="パス 8454" d="M140.584,31.881a21.048,21.048,0,0,0-11.761-12.006,22.466,22.466,0,0,0-2.73-.95,15.717,15.717,0,0,1,14.49,12.956Z" transform="translate(-98.993 -14.858)" fill="none" stroke="#fff" stroke-miterlimit="10" stroke-width="1"/>
      <path id="パス_8455" data-name="パス 8455" d="M173.4,85.729c-1.007,2.716-3.059,4.46-4.583,3.895s-1.942-3.225-.935-5.941,3.059-4.46,4.583-3.895,1.942,3.225.935,5.941" transform="translate(-131.366 -62.556)" fill="#b81b22"/>
      <path id="パス_8456" data-name="パス 8456" d="M173.4,85.729c-1.007,2.716-3.059,4.46-4.583,3.895s-1.942-3.225-.935-5.941,3.059-4.46,4.583-3.895S174.4,83.013,173.4,85.729Z" transform="translate(-131.366 -62.556)" fill="none" stroke="#b81b22" stroke-miterlimit="10" stroke-width="1"/>
      <path id="パス_8457" data-name="パス 8457" d="M12.046,53.127C5.388,52.888.872,53.709.522,55.545c-.38,1.988,4.234,4.675,11.462,7.06,1,.329,2.055.655,3.153.971h0c3.076.885,6.493,1.7,10.119,2.4A107.137,107.137,0,0,0,39.08,67.75c7.467.419,12.64-.383,13.016-2.349.251-1.32-1.7-2.949-5.15-4.593,2.727,1.382,4.236,2.736,4.023,3.849-.335,1.752-4.857,2.485-11.428,2.151a96.006,96.006,0,0,1-12.926-1.631,97.992,97.992,0,0,1-11.9-3.009q-1.664-.545-3.114-1.109c-4.819-1.87-7.722-3.832-7.432-5.347.269-1.4,3.224-2.151,7.765-2.224" transform="translate(-0.393 -41.677)" fill="#fff"/>
      <path id="パス_8458" data-name="パス 8458" d="M12.046,53.127C5.388,52.888.872,53.709.522,55.545c-.38,1.988,4.234,4.675,11.462,7.06,1,.329,2.055.655,3.153.971h0c3.076.885,6.493,1.7,10.119,2.4A107.137,107.137,0,0,0,39.08,67.75c7.467.419,12.64-.383,13.016-2.349.251-1.32-1.7-2.949-5.15-4.593,2.727,1.382,4.236,2.736,4.023,3.849-.335,1.752-4.857,2.485-11.428,2.151a96.006,96.006,0,0,1-12.926-1.631,97.992,97.992,0,0,1-11.9-3.009q-1.664-.545-3.114-1.109c-4.819-1.87-7.722-3.832-7.432-5.347.269-1.4,3.224-2.151,7.765-2.224" transform="translate(-0.393 -41.677)" fill="none" stroke="#fff" stroke-miterlimit="10" stroke-width="1"/>
    </g>
  </g>
</svg>
