<svg id="_14._メインロゴ" data-name="14. メインロゴ" xmlns="http://www.w3.org/2000/svg" xmlns:xlink="http://www.w3.org/1999/xlink" width="808.484" height="352.638" viewBox="0 0 808.484 352.638">
  <defs>
    <clipPath id="clip-path">
      <rect id="長方形_264" data-name="長方形 264" width="808.484" height="352.638" fill="none"/>
    </clipPath>
  </defs>
  <g id="グループ_8782" data-name="グループ 8782">
    <g id="グループ_8781" data-name="グループ 8781" clip-path="url(#clip-path)">
      <path id="パス_8459" data-name="パス 8459" d="M446.734,197.047c14.733,13.415,33.645,24.63,53.877,33.207l-16.274,21.989c-1.1,1.541-2.2,2.419-3.738,2.419a5.793,5.793,0,0,1-3.3-1.1c-13.634-7.917-29.907-20.892-41.562-34.965l1.979,50.139H405.831L407.59,219.7c-11.655,14.075-27.708,27.708-42,36.064a6.935,6.935,0,0,1-3.518,1.1c-1.539,0-2.639-.879-4.178-2.638l-16.054-18.473c21.551-10.114,39.8-23.09,53.877-38.7H384.281l-28.808.66-1.539-1.539V177.476a14.692,14.692,0,0,1-2.639,1.32c-4.4,1.759-8.8,3.518-13.634,5.277v4.18l1.1,49.038c0,25.51-9.9,32.107-36.724,32.107-2.639,0-3.3-.441-4.178-2.639l-11-27.488a128.2,128.2,0,0,0,16.273-.88c4.619-.44,5.938-1.759,5.938-7.037v-37.6c-3.958,1.32-8.136,2.42-12.535,3.52l-1.979-1.1-8.8-25.731,1.1-1.978c7.917-1.539,15.395-3.3,22.211-4.837V127.777l-18.033.441L289.5,126.9v-23.97l1.32-1.32,18.252.441V60.266l1.76-1.759H335.68l1.98,1.539v42l17.371-.441,1.32,1.1v24.41l-1.32,1.1-17.371-.441v27.929c6.156-1.979,12.094-3.958,18.252-5.937v21.989l28.368.66h22.87V151.967l1.1-1.1h24.409c-3.3-2.858-4.178-7.7-4.178-16.492V98.969l1.76-1.319h24.85l1.759,1.539v27.929c0,2.639.66,3.079,4.178,3.079,4.839,0,6.6-.881,7.257-12.315l21.771,8.136c2.2.879,2.417,1.539,2.2,3.518-.879,9.016-2.2,13.634-7.257,18.033-6.6,5.937-11.655,6.817-30.347,6.817-8.576,0-14.513-.22-18.471-1.541v19.572h29.247l29.028-.66,1.32,1.1v23.53l-1.32,1.32-29.028-.66Zm-90.6-57.615c30.128-6.817,35.406-16.714,36.944-40.023l1.76-1.319,26.169,4.4,1.979,1.979c-4.618,32.986-18.033,49.039-44.641,55.856a15.093,15.093,0,0,1-2.858.44,3.861,3.861,0,0,1-3.3-1.319Zm3.739-53.438-.659-16.054L360.97,68.4l25.509.66h78.727l27.048-.66,1.539,1.539-.659,15.833v6.817l1.1,20.231H463.886V92.812H388.018v20.01H358.77l1.1-20.231Z" transform="translate(58.438 11.965)" fill="#fff"/>
      <path id="パス_8460" data-name="パス 8460" d="M676.351,222l-36.726.659V170.542l.637-29.036a8.4,8.4,0,0,1-.245-.895,3.364,3.364,0,0,1-1.4-1.43c-.136-.071-.271-.141-.406-.213a1.494,1.494,0,0,1-.358-.313H512.474l-1.392,1.386c.04-.023.079-.043.118-.066l.659,30.567v52.118l-38.7-.659-1.538,1.539v22.87l1.538,1.539,36.5-.659H639.846l36.5.659,1.538-1.539V223.54Zm-67.733.659H542.206v-9.676h66.412Zm0-27.048H542.206v-9.017h66.412Zm0-26.169H542.206v-9.457h66.412Z" transform="translate(96.446 28.355)" fill="#fff"/>
    </g>
  </g>
  <text id="未来大" transform="translate(49.507 334.064)" fill="#fff" font-size="38" font-family="BIZ-UDPGothic-Bold, BIZ UDPGothic" font-weight="700"><tspan x="0" y="0" letter-spacing="0.779em">未来</tspan><tspan y="0">大</tspan></text>
  <g id="グループ_8784" data-name="グループ 8784">
    <g id="グループ_8783" data-name="グループ 8783" clip-path="url(#clip-path)">
      <text id="EXPO2022" transform="translate(262.446 338.638)" fill="#fff" font-size="50" font-family="FuturaPT-Medium, Futura PT" font-weight="500"><tspan x="0" y="0" letter-spacing="0.78em">EXPO</tspan><tspan y="0" letter-spacing="0.779em">2</tspan><tspan y="0" letter-spacing="0.78em">0</tspan><tspan y="0" letter-spacing="0.779em">2</tspan><tspan y="0">2</tspan></text>
      <path id="パス_8461" data-name="パス 8461" d="M570.317,127.71h-25a6.828,6.828,0,0,1-6.828-6.828V69.228a6.828,6.828,0,0,1,6.828-6.828h25a6.828,6.828,0,0,1,6.828,6.828v51.654a6.828,6.828,0,0,1-6.828,6.828" transform="translate(110.12 12.761)" fill="#fff"/>
      <rect id="長方形_265" data-name="長方形 265" width="21.247" height="6.233" transform="translate(636.744 102.508)" fill="#fff"/>
      <rect id="長方形_266" data-name="長方形 266" width="45.855" height="16.732" transform="translate(645.066 144.854)" fill="#fff"/>
      <path id="パス_8462" data-name="パス 8462" d="M539.846,122.914l2.348,9.868a3.414,3.414,0,0,1-3.321,4.2h-4.7a3.415,3.415,0,0,1-3.322-4.2l2.349-9.868a3.414,3.414,0,0,1,6.643,0" transform="translate(108.541 24.599)" fill="#fff"/>
      <path id="パス_8463" data-name="パス 8463" d="M577.917,122.916l2.348,9.865a3.414,3.414,0,0,1-3.321,4.2h-4.7a3.414,3.414,0,0,1-3.321-4.2l2.348-9.865a3.414,3.414,0,0,1,6.643,0" transform="translate(116.326 24.6)" fill="#fff"/>
      <path id="パス_8464" data-name="パス 8464" d="M590.125,50.571c0,6.126-13.623,11.093-30.428,11.093S529.269,56.7,529.269,50.571" transform="translate(108.236 10.342)" fill="#fff"/>
      <path id="パス_8465" data-name="パス 8465" d="M558.8,39.4l1.488,8.026a3.414,3.414,0,0,1-3.357,4.036h-2.975a3.414,3.414,0,0,1-3.357-4.036L552.09,39.4a3.414,3.414,0,0,1,6.714,0" transform="translate(112.587 7.485)" fill="#fff"/>
      <path id="パス_8466" data-name="パス 8466" d="M559.782,37.2c-.235,2.095-2.4,3.57-4.84,3.3s-4.224-2.193-3.99-4.287,2.4-3.571,4.84-3.3,4.225,2.192,3.991,4.287" transform="translate(112.666 6.724)" fill="#fff"/>
      <path id="パス_8467" data-name="パス 8467" d="M544.837,27.73c6.144-8.132,16-8.439,22.017-.687" transform="translate(111.42 4.381)" fill="none" stroke="#9d0d1a" stroke-miterlimit="10" stroke-width="7"/>
      <path id="パス_8468" data-name="パス 8468" d="M531.211,18.255c15.1-20.012,40.257-19.619,56.18.878" transform="translate(108.633 0.716)" fill="none" stroke="#9d0d1a" stroke-miterlimit="10" stroke-width="7"/>
      <rect id="長方形_267" data-name="長方形 267" width="12.58" height="8.966" transform="translate(589.234 95.152)" fill="#fff"/>
      <path id="パス_8469" data-name="パス 8469" d="M515.354,87.963h14.6V85.825A6.829,6.829,0,0,0,523.123,79h-7.769Z" transform="translate(105.39 16.155)" fill="#fff"/>
      <rect id="長方形_268" data-name="長方形 268" width="12.58" height="8.966" transform="translate(589.233 107.132)" fill="#fff"/>
      <rect id="長方形_269" data-name="長方形 269" width="12.904" height="8.966" transform="translate(604.827 107.132)" fill="#fff"/>
      <rect id="長方形_270" data-name="長方形 270" width="12.904" height="8.966" transform="translate(604.827 95.152)" fill="#fff"/>
      <path id="パス_8470" data-name="パス 8470" d="M515.354,88.943v8.966h7.769a6.829,6.829,0,0,0,6.83-6.828V88.943Z" transform="translate(105.39 18.189)" fill="#fff"/>
      <path id="パス_8471" data-name="パス 8471" d="M489.226,88.943H474.3v2.138a6.828,6.828,0,0,0,6.828,6.828h8.094Z" transform="translate(96.995 18.189)" fill="#fff"/>
      <path id="パス_8472" data-name="パス 8472" d="M489.226,87.963V79h-8.094a6.828,6.828,0,0,0-6.828,6.828v2.138Z" transform="translate(96.995 16.155)" fill="#fff"/>
      <rect id="長方形_271" data-name="長方形 271" width="21.247" height="6.233" transform="translate(675.464 102.508)" fill="#fff"/>
      <rect id="長方形_272" data-name="長方形 272" width="12.58" height="8.966" transform="translate(731.64 107.132)" fill="#fff"/>
      <path id="パス_8473" data-name="パス 8473" d="M594.185,88.943h-14.6v2.138a6.829,6.829,0,0,0,6.829,6.828h7.769Z" transform="translate(118.526 18.189)" fill="#fff"/>
      <rect id="長方形_273" data-name="長方形 273" width="12.58" height="8.966" transform="translate(731.64 95.152)" fill="#fff"/>
      <rect id="長方形_274" data-name="長方形 274" width="12.904" height="8.966" transform="translate(715.724 95.152)" fill="#fff"/>
      <rect id="長方形_275" data-name="長方形 275" width="12.904" height="8.966" transform="translate(715.724 107.132)" fill="#fff"/>
      <path id="パス_8474" data-name="パス 8474" d="M594.185,87.963V79h-7.769a6.829,6.829,0,0,0-6.829,6.828v2.138Z" transform="translate(118.526 16.155)" fill="#fff"/>
      <path id="パス_8475" data-name="パス 8475" d="M620.368,87.963h14.923V85.825A6.828,6.828,0,0,0,628.462,79h-8.094Z" transform="translate(126.866 16.155)" fill="#fff"/>
      <path id="パス_8476" data-name="パス 8476" d="M620.368,88.943v8.966h8.094a6.828,6.828,0,0,0,6.828-6.828V88.943Z" transform="translate(126.866 18.189)" fill="#fff"/>
      <path id="パス_8477" data-name="パス 8477" d="M257.178,162.88c0,.734-.013,1.468-.026,2.189a91.176,91.176,0,1,0-36.9,75.633,100.478,100.478,0,1,1,36.923-77.822" transform="translate(11.497 12.761)" fill="#fff"/>
      <path id="パス_8478" data-name="パス 8478" d="M257.178,162.88c0,.734-.013,1.468-.026,2.189a91.176,91.176,0,1,0-36.9,75.633,100.478,100.478,0,1,1,36.923-77.822Z" transform="translate(11.497 12.761)" fill="none" stroke="#fff" stroke-miterlimit="10" stroke-width="1"/>
      <path id="パス_8479" data-name="パス 8479" d="M229.6,163.249c-11.436-31.571-37.27-59.5-73.018-74.538a139.032,139.032,0,0,0-16.947-5.9A97.585,97.585,0,0,1,229.6,163.249" transform="translate(28.556 16.935)" fill="#fff"/>
      <path id="パス_8480" data-name="パス 8480" d="M229.6,163.249c-11.436-31.571-37.27-59.5-73.018-74.538a139.032,139.032,0,0,0-16.947-5.9A97.585,97.585,0,0,1,229.6,163.249Z" transform="translate(28.556 16.935)" fill="none" stroke="#fff" stroke-miterlimit="10" stroke-width="1"/>
      <path id="パス_8481" data-name="パス 8481" d="M222.985,187.666c-6.254,16.863-18.993,27.689-28.453,24.182s-12.058-20.024-5.8-36.887,18.993-27.689,28.453-24.18,12.058,20.022,5.8,36.885" transform="translate(37.898 30.7)" fill="#9d0c1a"/>
      <path id="パス_8482" data-name="パス 8482" d="M222.985,187.666c-6.254,16.863-18.993,27.689-28.453,24.182s-12.058-20.024-5.8-36.887,18.993-27.689,28.453-24.18S229.238,170.8,222.985,187.666Z" transform="translate(37.898 30.7)" fill="none" stroke="#9d0c1a" stroke-miterlimit="10" stroke-width="1"/>
      <path id="パス_8483" data-name="パス 8483" d="M72.186,120.907C30.846,119.425,2.81,124.522.635,135.918c-2.361,12.344,26.288,29.024,71.164,43.835,6.218,2.042,12.757,4.07,19.576,6.031h.013c19.095,5.5,40.312,10.583,62.823,14.892A665.294,665.294,0,0,0,240.027,211.7c46.356,2.6,78.476-2.375,80.811-14.585,1.561-8.193-10.542-18.308-31.972-28.517,16.933,8.581,26.3,16.987,24.979,23.9-2.081,10.875-30.157,15.425-70.95,13.357a596.07,596.07,0,0,1-80.25-10.127,608.5,608.5,0,0,1-73.859-18.682q-10.329-3.382-19.336-6.885c-29.917-11.61-47.945-23.793-46.143-33.2,1.667-8.7,20.015-13.357,48.211-13.811" transform="translate(0.102 24.674)" fill="#fff"/>
      <path id="パス_8484" data-name="パス 8484" d="M72.186,120.907C30.846,119.425,2.81,124.522.635,135.918c-2.361,12.344,26.288,29.024,71.164,43.835,6.218,2.042,12.757,4.07,19.576,6.031h.013c19.095,5.5,40.312,10.583,62.823,14.892A665.294,665.294,0,0,0,240.027,211.7c46.356,2.6,78.476-2.375,80.811-14.585,1.561-8.193-10.542-18.308-31.972-28.517,16.933,8.581,26.3,16.987,24.979,23.9-2.081,10.875-30.157,15.425-70.95,13.357a596.07,596.07,0,0,1-80.25-10.127,608.5,608.5,0,0,1-73.859-18.682q-10.329-3.382-19.336-6.885c-29.917-11.61-47.945-23.793-46.143-33.2,1.667-8.7,20.015-13.357,48.211-13.811" transform="translate(0.102 24.674)" fill="none" stroke="#fff" stroke-miterlimit="10" stroke-width="1"/>
    </g>
  </g>
</svg>
