<svg xmlns="http://www.w3.org/2000/svg" xmlns:xlink="http://www.w3.org/1999/xlink" width="318" height="238.013" viewBox="0 0 318 238.013">
  <defs>
    <clipPath id="clip-path">
      <rect id="長方形_305" data-name="長方形 305" width="318" height="238.013" fill="none"/>
    </clipPath>
  </defs>
  <g id="_14._メインロゴ" data-name="14. メインロゴ" transform="translate(-73 -133)">
    <g id="メインロゴ" transform="translate(73 133)" clip-path="url(#clip-path)">
      <path id="パス_8519" data-name="パス 8519" d="M75.6,65.066c6.92,6.3,15.8,11.567,25.3,15.6L93.261,90.989a2.15,2.15,0,0,1-1.756,1.136,2.719,2.719,0,0,1-1.549-.516,77.6,77.6,0,0,1-19.52-16.421l.93,23.547H56.391L57.217,75.7A79.7,79.7,0,0,1,37.491,92.641a3.256,3.256,0,0,1-1.653.517c-.723,0-1.239-.413-1.962-1.239l-7.539-8.676a78.746,78.746,0,0,0,25.3-18.177H46.269l-13.53.31-.723-.723V55.874a6.883,6.883,0,0,1-1.24.62c-2.065.826-4.131,1.652-6.4,2.478v1.963l.516,23.031c0,11.981-4.648,15.078-17.248,15.078-1.239,0-1.549-.207-1.962-1.239L.517,84.9a60.353,60.353,0,0,0,7.642-.413c2.169-.207,2.788-.827,2.788-3.306V63.516c-1.859.62-3.821,1.137-5.887,1.653l-.93-.516L0,52.568l.517-.929c3.718-.723,7.229-1.549,10.431-2.272V32.533l-8.469.207-.723-.62V20.862l.62-.62,8.572.207V.826L11.774,0H23.445l.93.723V20.449l8.158-.207.62.516V32.223l-.62.517-8.158-.207V45.649c2.891-.929,5.68-1.859,8.572-2.788V53.189l13.323.309H57.01v-9.6l.517-.516H68.991c-1.549-1.343-1.962-3.615-1.962-7.746V19l.826-.62H79.525l.826.723V32.223c0,1.24.31,1.446,1.962,1.446,2.272,0,3.1-.414,3.409-5.784l10.225,3.822c1.033.413,1.136.723,1.033,1.652-.413,4.235-1.033,6.4-3.409,8.469-3.1,2.788-5.474,3.2-14.252,3.2-4.027,0-6.816-.1-8.675-.723V53.5H84.379l13.633-.309.62.516V64.756l-.62.62-13.633-.31ZM33.049,38.007c14.149-3.2,16.628-7.849,17.351-18.8l.826-.62,12.291,2.066.929.93c-2.169,15.491-8.469,23.031-20.965,26.233a7.133,7.133,0,0,1-1.343.206,1.812,1.812,0,0,1-1.549-.619Zm1.756-25.1L34.5,5.37l.826-.723,11.98.31H84.276l12.7-.31.723.723-.309,7.436v3.2l.516,9.5H83.656v-9.4H48.025v9.4H34.289l.516-9.5Z" fill="#f8f9f9"/>
      <path id="パス_8520" data-name="パス 8520" d="M97.576,340.158l-17.248.309V315.99l.3-13.637a3.891,3.891,0,0,1-.115-.42,1.583,1.583,0,0,1-.658-.672l-.191-.1a.732.732,0,0,1-.168-.146H20.612l-.654.651.056-.031.309,14.355v24.477l-18.177-.309-.723.723v10.741l.723.723,17.144-.309H80.432l17.144.309.723-.723V340.881Zm-31.81.309H34.575v-4.544H65.766Zm0-12.7H34.575v-4.235H65.766Zm0-12.29H34.575v-4.441H65.766Z" transform="translate(-0.54 -114.331)" fill="#f8f9f9"/>
      <path id="パス_8521" data-name="パス 8521" d="M229.077,35.595A43.2,43.2,0,0,0,244.84,47.771a25.1,25.1,0,0,0-3.808,4.561,46.656,46.656,0,0,1-14.391-12.177V54.236h-5.623V40.421a48.626,48.626,0,0,1-14.391,11.867,28.783,28.783,0,0,0-3.852-4.561,43.14,43.14,0,0,0,15.807-12.132H204.237V30.37h16.781V24.7h-13.46V19.477h13.46v-6.6h5.623v6.6H240.5V24.7H226.642V30.37h17.048v5.225Z" transform="translate(-77.018 -4.892)" fill="#f8f9f9"/>
      <path id="パス_8522" data-name="パス 8522" d="M351.173,37.074a41.071,41.071,0,0,0,15.01,11.158,24.724,24.724,0,0,0-3.675,4.427A44.766,44.766,0,0,1,348.03,40.527V54.12h-5.579v-13.5a45.943,45.943,0,0,1-14.523,11.955,25,25,0,0,0-3.72-4.427,41.8,41.8,0,0,0,15.144-11.07h-13.9V32.026h8.369A30.888,30.888,0,0,0,330.5,24.41l4.561-1.727h-7.528V17.635h14.922V12.809h5.579v4.826h15.32v5.048H356l5.092,1.506a81.72,81.72,0,0,1-4.65,7.837h8.591v5.048Zm-15.94-14.391a31.545,31.545,0,0,1,3.764,7.7l-4.207,1.639h7.66V22.683Zm12.8,0v9.343h7.438l-3.719-1.284a49.83,49.83,0,0,0,3.763-8.059Z" transform="translate(-123.141 -4.865)" fill="#f8f9f9"/>
      <path id="パス_8523" data-name="パス 8523" d="M471.083,30.148c2.922,8.634,8.28,15.586,16.56,18.951a21.157,21.157,0,0,0-3.9,4.959c-8.015-3.764-13.15-10.228-16.6-18.774A30.479,30.479,0,0,1,450.582,54.1a15.584,15.584,0,0,0-3.941-4.472c10.139-4.517,14.347-11.867,16.073-19.483H447.482V24.7H463.6c.442-4.162.4-8.191.442-11.822H469.8c-.045,3.631-.089,7.7-.532,11.822h17.4v5.446Z" transform="translate(-169.643 -4.892)" fill="#f8f9f9"/>
      <path id="パス_8524" data-name="パス 8524" d="M230.286,175.689H219.155v7.547h10.8v4.287h-10.8V196.9h11.131v4.287h-15.4V171.4h15.4Z" transform="translate(-81.618 -65.102)" fill="#f8f9f9"/>
      <path id="パス_8525" data-name="パス 8525" d="M302.616,185.648l-7.7-14.246h4.77l5.44,10.092,5.565-10.092h4.771l-8.034,14.246,8.411,15.54h-4.77L304.959,189.8,298.6,201.189h-4.77Z" transform="translate(-111.602 -65.102)" fill="#f8f9f9"/>
      <path id="パス_8526" data-name="パス 8526" d="M391.469,171.4a10.366,10.366,0,0,1,6.11,1.608,8.817,8.817,0,0,1,3.473,7.234,8.622,8.622,0,0,1-2.719,6.52,9.648,9.648,0,0,1-6.821,2.323h-1.925v12.1h-4.268V171.4Zm-1.883,13.486h1.925c3.683,0,5.44-1.919,5.44-4.689,0-1.652-.628-4.6-5.482-4.6h-1.883Z" transform="translate(-146.351 -65.102)" fill="#f8f9f9"/>
      <path id="パス_8527" data-name="パス 8527" d="M494.515,185.99c0,8.753-6.152,15.452-14.521,15.452s-14.521-6.7-14.521-15.452,6.152-15.451,14.521-15.451,14.521,6.7,14.521,15.451m-4.269,0c0-6.609-4.269-11.254-10.252-11.254s-10.253,4.645-10.253,11.254,4.269,11.254,10.253,11.254,10.252-4.645,10.252-11.254" transform="translate(-176.796 -64.774)" fill="#f8f9f9"/>
      <path id="パス_8528" data-name="パス 8528" d="M81.057,262.132H69.932a3.516,3.516,0,0,1-3.516-3.516V234.974a3.516,3.516,0,0,1,3.516-3.516H81.057a3.516,3.516,0,0,1,3.516,3.516v23.641a3.516,3.516,0,0,1-3.516,3.516" transform="translate(-25.226 -87.912)" fill="#f8f9f9"/>
      <rect id="長方形_294" data-name="長方形 294" width="9.979" height="2.928" transform="translate(35.62 156.39)" fill="#f8f9f9"/>
      <rect id="長方形_295" data-name="長方形 295" width="21.536" height="7.858" transform="translate(39.528 176.278)" fill="#f8f9f9"/>
      <path id="パス_8529" data-name="パス 8529" d="M63.814,286.44l.907,3.813a1.758,1.758,0,0,1-1.71,2.165H61.2a1.758,1.758,0,0,1-1.71-2.165l.907-3.813a1.758,1.758,0,0,1,3.42,0" transform="translate(-22.576 -108.282)" fill="#f8f9f9"/>
      <path id="パス_8530" data-name="パス 8530" d="M98.539,286.443l.907,3.812a1.758,1.758,0,0,1-1.71,2.165H95.922a1.758,1.758,0,0,1-1.71-2.165l.907-3.812a1.758,1.758,0,0,1,3.42,0" transform="translate(-35.765 -108.284)" fill="#f8f9f9"/>
      <path id="パス_8531" data-name="パス 8531" d="M86.592,220.669c0,2.878-6.4,5.21-14.29,5.21s-14.291-2.332-14.291-5.21" transform="translate(-22.034 -83.814)" fill="#f8f9f9"/>
      <path id="パス_8532" data-name="パス 8532" d="M81.466,210.484l.513,2.767a1.758,1.758,0,0,1-1.728,2.078H79.225a1.758,1.758,0,0,1-1.728-2.078l.513-2.767a1.758,1.758,0,0,1,3.457,0" transform="translate(-29.423 -79.4)" fill="#f8f9f9"/>
      <path id="パス_8533" data-name="パス 8533" d="M81.927,206.56a2.11,2.11,0,1,1-1.874-2.013,1.956,1.956,0,0,1,1.874,2.013" transform="translate(-29.539 -77.685)" fill="#f8f9f9"/>
      <path id="パス_8534" data-name="パス 8534" d="M72.211,197.044c2.886-3.819,7.515-3.963,10.34-.323" transform="translate(-27.427 -73.717)" fill="none" stroke="#9d0d1a" stroke-miterlimit="10" stroke-width="7"/>
      <path id="パス_8535" data-name="パス 8535" d="M59.782,184.663c7.094-9.4,18.907-9.214,26.385.412" transform="translate(-22.706 -67.507)" fill="none" stroke="#9d0d1a" stroke-miterlimit="10" stroke-width="7"/>
      <rect id="長方形_296" data-name="長方形 296" width="5.908" height="4.211" transform="translate(13.307 152.935)" fill="#f8f9f9"/>
      <path id="パス_8536" data-name="パス 8536" d="M45.318,250.809h6.856v-1a3.207,3.207,0,0,0-3.207-3.207H45.318Z" transform="translate(-17.213 -93.663)" fill="#f8f9f9"/>
      <rect id="長方形_297" data-name="長方形 297" width="5.908" height="4.211" transform="translate(13.307 158.562)" fill="#f8f9f9"/>
      <rect id="長方形_298" data-name="長方形 298" width="6.06" height="4.211" transform="translate(20.63 158.562)" fill="#f8f9f9"/>
      <rect id="長方形_299" data-name="長方形 299" width="6.06" height="4.211" transform="translate(20.63 152.935)" fill="#f8f9f9"/>
      <path id="パス_8537" data-name="パス 8537" d="M45.318,255.67v4.211h3.649a3.207,3.207,0,0,0,3.207-3.207v-1Z" transform="translate(-17.213 -97.108)" fill="#f8f9f9"/>
      <path id="パス_8538" data-name="パス 8538" d="M14.882,255.67H7.873v1a3.207,3.207,0,0,0,3.208,3.207h3.8Z" transform="translate(-2.99 -97.108)" fill="#f8f9f9"/>
      <path id="パス_8539" data-name="パス 8539" d="M14.882,250.809V246.6h-3.8A3.207,3.207,0,0,0,7.873,249.8v1Z" transform="translate(-2.99 -93.663)" fill="#f8f9f9"/>
      <rect id="長方形_300" data-name="長方形 300" width="9.979" height="2.928" transform="translate(53.804 156.39)" fill="#f8f9f9"/>
      <rect id="長方形_301" data-name="長方形 301" width="5.908" height="4.211" transform="translate(80.188 158.562)" fill="#f8f9f9"/>
      <path id="パス_8540" data-name="パス 8540" d="M110.763,255.669h-6.856v1a3.207,3.207,0,0,0,3.207,3.207h3.649Z" transform="translate(-39.466 -97.108)" fill="#f8f9f9"/>
      <rect id="長方形_302" data-name="長方形 302" width="5.908" height="4.211" transform="translate(80.188 152.935)" fill="#f8f9f9"/>
      <rect id="長方形_303" data-name="長方形 303" width="6.06" height="4.211" transform="translate(72.712 152.935)" fill="#f8f9f9"/>
      <rect id="長方形_304" data-name="長方形 304" width="6.06" height="4.211" transform="translate(72.712 158.562)" fill="#f8f9f9"/>
      <path id="パス_8541" data-name="パス 8541" d="M110.763,250.809V246.6h-3.649a3.207,3.207,0,0,0-3.207,3.207v1Z" transform="translate(-39.466 -93.663)" fill="#f8f9f9"/>
      <path id="パス_8542" data-name="パス 8542" d="M141.106,250.809h7.009v-1a3.207,3.207,0,0,0-3.208-3.207h-3.8Z" transform="translate(-53.595 -93.663)" fill="#f8f9f9"/>
      <path id="パス_8543" data-name="パス 8543" d="M141.106,255.669v4.211h3.8a3.207,3.207,0,0,0,3.208-3.207v-1Z" transform="translate(-53.595 -97.108)" fill="#f8f9f9"/>
      <path id="パス_8544" data-name="パス 8544" d="M229.912,348.265H211.178l9.66-11.709c.962-1.171,2.426-3.01,3.345-4.349a6.9,6.9,0,0,0,1.464-4.014,4.353,4.353,0,0,0-4.642-4.517c-3.136,0-4.767,2.426-4.935,5.06h-4.1a10.049,10.049,0,0,1,2.342-6.106,8.371,8.371,0,0,1,6.524-2.718c5.938,0,8.991,4.057,8.991,8.406a10.27,10.27,0,0,1-2.008,5.854,56.6,56.6,0,0,1-3.972,5.018l-4.349,5.144h10.413Z" transform="translate(-80.21 -121.509)" fill="#f8f9f9"/>
      <path id="パス_8545" data-name="パス 8545" d="M304.54,345.713c-2.927-3.345-3.555-7.736-3.555-11.375,0-3.6.628-8.07,3.555-11.415a8.125,8.125,0,0,1,12.629,0c2.927,3.345,3.555,7.819,3.555,11.415,0,3.639-.628,8.029-3.555,11.375a8.126,8.126,0,0,1-12.629,0m2.551-19.738c-1.547,2.3-1.924,5.9-1.924,8.322,0,2.466.376,6.021,1.924,8.363a4.23,4.23,0,0,0,7.527,0c1.547-2.342,1.924-5.9,1.924-8.363,0-2.425-.376-6.021-1.924-8.322a4.229,4.229,0,0,0-7.527,0" transform="translate(-114.32 -121.509)" fill="#f8f9f9"/>
      <path id="パス_8546" data-name="パス 8546" d="M407.639,348.265H388.9l9.659-11.709c.963-1.171,2.425-3.01,3.346-4.349a6.9,6.9,0,0,0,1.464-4.014,4.352,4.352,0,0,0-4.641-4.517c-3.137,0-4.768,2.426-4.935,5.06h-4.1a10.053,10.053,0,0,1,2.342-6.106,8.369,8.369,0,0,1,6.523-2.718c5.938,0,8.991,4.057,8.991,8.406a10.27,10.27,0,0,1-2.007,5.854,56.605,56.605,0,0,1-3.972,5.018l-4.349,5.144h10.413Z" transform="translate(-147.714 -121.509)" fill="#f8f9f9"/>
      <path id="パス_8547" data-name="パス 8547" d="M496.5,348.265H477.769l9.659-11.709c.963-1.171,2.426-3.01,3.346-4.349a6.9,6.9,0,0,0,1.464-4.014,4.352,4.352,0,0,0-4.641-4.517c-3.137,0-4.768,2.426-4.935,5.06h-4.1a10.053,10.053,0,0,1,2.342-6.106,8.369,8.369,0,0,1,6.523-2.718c5.938,0,8.991,4.057,8.991,8.406a10.27,10.27,0,0,1-2.007,5.854,56.594,56.594,0,0,1-3.972,5.018l-4.349,5.144H496.5Z" transform="translate(-181.466 -121.509)" fill="#f8f9f9"/>
    </g>
  </g>
</svg>
