<svg xmlns="http://www.w3.org/2000/svg" xmlns:xlink="http://www.w3.org/1999/xlink" width="910" height="850.292" viewBox="0 0 910 850.292">
  <defs>
    <clipPath id="clip-path">
      <rect id="長方形_263" data-name="長方形 263" width="396.111" height="249.004" fill="none"/>
    </clipPath>
  </defs>
  <g id="_3._ロゴマーク" data-name="3. ロゴマーク" transform="translate(-550 -2815.5)">
    <g id="装飾" transform="translate(761.945 2991.643)">
      <g id="グループ_8779" data-name="グループ 8779" clip-path="url(#clip-path)">
        <path id="パス_8451" data-name="パス 8451" d="M298.155,124.181c0,.9-.016,1.807-.033,2.694a112.225,112.225,0,1,0-45.415,93.1,123.678,123.678,0,1,1,45.448-95.791" transform="translate(32.635 0.321)" fill="#fff"/>
        <path id="パス_8452" data-name="パス 8452" d="M298.155,124.181c0,.9-.016,1.807-.033,2.694a112.225,112.225,0,1,0-45.415,93.1,123.678,123.678,0,1,1,45.448-95.791Z" transform="translate(32.635 0.321)" fill="none" stroke="#fff" stroke-miterlimit="10" stroke-width="1"/>
        <path id="パス_8453" data-name="パス 8453" d="M236.832,117.935c-14.076-38.862-45.875-73.239-89.878-91.75a171.77,171.77,0,0,0-20.86-7.26,120.116,120.116,0,0,1,110.738,99.01" transform="translate(81.016 12.159)" fill="#fff"/>
        <path id="パス_8454" data-name="パス 8454" d="M236.832,117.935c-14.076-38.862-45.875-73.239-89.878-91.75a171.77,171.77,0,0,0-20.86-7.26,120.116,120.116,0,0,1,110.738,99.01Z" transform="translate(81.016 12.159)" fill="none" stroke="#fff" stroke-miterlimit="10" stroke-width="1"/>
        <path id="パス_8455" data-name="パス 8455" d="M213.69,125.9c-7.7,20.756-23.378,34.082-35.021,29.764s-14.843-24.646-7.145-45.4S194.9,76.176,206.545,80.494s14.843,24.646,7.145,45.4" transform="translate(107.51 51.196)" fill="#b81b22"/>
        <path id="パス_8456" data-name="パス 8456" d="M213.69,125.9c-7.7,20.756-23.378,34.082-35.021,29.764s-14.843-24.646-7.145-45.4S194.9,76.176,206.545,80.494,221.388,105.14,213.69,125.9Z" transform="translate(107.51 51.196)" fill="none" stroke="#b81b22" stroke-miterlimit="10" stroke-width="1"/>
        <path id="パス_8457" data-name="パス 8457" d="M88.738,53.395C37.854,51.571,3.345,57.846.667,71.873-2.24,87.066,33.025,107.6,88.262,125.829c7.654,2.513,15.7,5.01,24.1,7.424h.016c23.5,6.767,49.62,13.025,77.329,18.33,38.352,7.326,74.586,11.826,105.63,13.567,57.061,3.2,96.6-2.924,99.47-17.953,1.922-10.085-12.976-22.535-39.354-35.1,20.843,10.561,32.374,20.909,30.748,29.417-2.562,13.386-37.121,18.987-87.332,16.441-28.81-1.445-62.777-5.585-98.78-12.467a748.971,748.971,0,0,1-90.913-23q-12.713-4.164-23.8-8.475c-36.825-14.29-59.015-29.286-56.8-40.866,2.053-10.709,24.638-16.441,59.344-17" transform="translate(0.321 34.108)" fill="#fff"/>
        <path id="パス_8458" data-name="パス 8458" d="M88.738,53.395C37.854,51.571,3.345,57.846.667,71.873-2.24,87.066,33.025,107.6,88.262,125.829c7.654,2.513,15.7,5.01,24.1,7.424h.016c23.5,6.767,49.62,13.025,77.329,18.33,38.352,7.326,74.586,11.826,105.63,13.567,57.061,3.2,96.6-2.924,99.47-17.953,1.922-10.085-12.976-22.535-39.354-35.1,20.843,10.561,32.374,20.909,30.748,29.417-2.562,13.386-37.121,18.987-87.332,16.441-28.81-1.445-62.777-5.585-98.78-12.467a748.971,748.971,0,0,1-90.913-23q-12.713-4.164-23.8-8.475c-36.825-14.29-59.015-29.286-56.8-40.866,2.053-10.709,24.638-16.441,59.344-17" transform="translate(0.321 34.108)" fill="none" stroke="#fff" stroke-miterlimit="10" stroke-width="1"/>
      </g>
    </g>
    <g id="テキスト">
      <text id="ロゴの説明をかくところ_今回のテーマはデザインの_探査_ということで_光と色の三原色からデザインを表現し_惑星をモチーフとしたデザインで探査を表現しました" data-name="ロゴの説明をかくところ

今回のテーマはデザインの「探査」ということで

光と色の三原色からデザインを表現し、

惑星をモチーフとしたデザインで探査を表現しました" transform="translate(970 3371.792)" fill="#fff" font-size="30" font-family="Corporate-Logo-Medium-ver2, Corporate Logo ver2"><tspan x="-133.785" y="32">ロゴの説明をかくところ</tspan><tspan x="0" y="74"></tspan><tspan x="-272.655" y="116">今回のテーマはデザインの「探査」ということで</tspan><tspan x="0" y="158"></tspan><tspan x="-236.025" y="200">光と色の三原色からデザインを表現し、</tspan><tspan x="0" y="242"></tspan><tspan x="-293.22" y="284">惑星をモチーフとしたデザインで探査を表現しました</tspan></text>
      <text id="ロゴマーク" transform="translate(866.5 2873.5)" fill="#fff" font-size="54" font-family="Corporate-Logo-Medium-ver2, Corporate Logo ver2" letter-spacing="0.1em"><tspan x="0" y="0">ロゴマーク</tspan></text>
    </g>
  </g>
</svg>
