<svg xmlns="http://www.w3.org/2000/svg" xmlns:xlink="http://www.w3.org/1999/xlink" width="238.118" height="342.031" viewBox="0 0 238.118 342.031">
  <defs>
    <clipPath id="clip-path">
      <rect id="長方形_262" data-name="長方形 262" width="238.118" height="237.053" fill="none"/>
    </clipPath>
    <clipPath id="clip-path-3">
      <rect id="長方形_239" data-name="長方形 239" width="0.078" height="0.146" fill="none"/>
    </clipPath>
    <clipPath id="clip-path-4">
      <rect id="長方形_240" data-name="長方形 240" width="0.221" height="0.372" fill="none"/>
    </clipPath>
    <clipPath id="clip-path-5">
      <rect id="長方形_241" data-name="長方形 241" width="0.267" height="0.413" fill="none"/>
    </clipPath>
    <clipPath id="clip-path-6">
      <rect id="長方形_242" data-name="長方形 242" width="0.297" height="0.479" fill="none"/>
    </clipPath>
    <clipPath id="clip-path-7">
      <rect id="長方形_243" data-name="長方形 243" width="0.292" height="0.557" fill="none"/>
    </clipPath>
    <clipPath id="clip-path-8">
      <rect id="長方形_244" data-name="長方形 244" width="0.041" height="0.061" fill="none"/>
    </clipPath>
    <clipPath id="clip-path-9">
      <rect id="長方形_245" data-name="長方形 245" width="0.275" height="0.572" fill="none"/>
    </clipPath>
    <clipPath id="clip-path-10">
      <rect id="長方形_246" data-name="長方形 246" width="34.589" height="28.329" fill="none"/>
    </clipPath>
    <clipPath id="clip-path-11">
      <rect id="長方形_247" data-name="長方形 247" width="0.317" height="0.631" fill="none"/>
    </clipPath>
    <clipPath id="clip-path-12">
      <rect id="長方形_248" data-name="長方形 248" width="191.174" height="227.48" fill="none"/>
    </clipPath>
    <clipPath id="clip-path-13">
      <rect id="長方形_249" data-name="長方形 249" width="0.337" height="0.292" fill="none"/>
    </clipPath>
    <clipPath id="clip-path-14">
      <rect id="長方形_250" data-name="長方形 250" width="0.383" height="0.323" fill="none"/>
    </clipPath>
    <clipPath id="clip-path-15">
      <rect id="長方形_251" data-name="長方形 251" width="0.358" height="0.294" fill="none"/>
    </clipPath>
    <clipPath id="clip-path-16">
      <rect id="長方形_252" data-name="長方形 252" width="0.226" height="0.202" fill="none"/>
    </clipPath>
    <clipPath id="clip-path-17">
      <rect id="長方形_253" data-name="長方形 253" width="0.105" height="0.117" fill="none"/>
    </clipPath>
    <clipPath id="clip-path-18">
      <rect id="長方形_254" data-name="長方形 254" width="0.157" height="0.168" fill="none"/>
    </clipPath>
    <clipPath id="clip-path-19">
      <rect id="長方形_255" data-name="長方形 255" width="0.202" height="0.259" fill="none"/>
    </clipPath>
    <clipPath id="clip-path-20">
      <rect id="長方形_256" data-name="長方形 256" width="0.211" height="0.282" fill="none"/>
    </clipPath>
    <clipPath id="clip-path-21">
      <rect id="長方形_257" data-name="長方形 257" width="0.031" height="0.043" fill="none"/>
    </clipPath>
    <clipPath id="clip-path-22">
      <rect id="長方形_258" data-name="長方形 258" width="11.213" height="11.213" fill="none"/>
    </clipPath>
    <clipPath id="clip-path-23">
      <rect id="長方形_259" data-name="長方形 259" width="5.468" height="5.468" fill="none"/>
    </clipPath>
    <clipPath id="clip-path-24">
      <rect id="長方形_260" data-name="長方形 260" width="20.779" height="20.526" fill="none"/>
    </clipPath>
  </defs>
  <g id="pitagora" transform="translate(-840.941 -6391.451)">
    <g id="装飾">
      <g id="ピタゴラ惑星" transform="translate(840.941 6391.451)">
        <g id="グループ_8776" data-name="グループ 8776" clip-path="url(#clip-path)">
          <g id="グループ_8775" data-name="グループ 8775">
            <g id="グループ_8774" data-name="グループ 8774" clip-path="url(#clip-path)">
              <path id="パス_8411" data-name="パス 8411" d="M111.378,15.78C96.866,15.315,73.573,19.6,53.647,35.17A92.3,92.3,0,0,0,32.93,58.16C21.108,76.2,15.76,96.669,15.76,111.4A95.618,95.618,0,1,0,207,111.4c0-57.743-52.307-94.229-95.618-95.618m0,120.12A24.518,24.518,0,1,1,135.9,111.383,24.519,24.519,0,0,1,111.378,135.9" transform="translate(7.149 7.143)" fill="#fff"/>
              <path id="パス_8412" data-name="パス 8412" d="M104.019,32.037H69.753L74.274,0H99.5Z" transform="translate(31.641 0)" fill="#fff"/>
              <path id="パス_8413" data-name="パス 8413" d="M75.034,32.07,45.359,49.2,33.256,19.2,55.1,6.586Z" transform="translate(15.085 2.987)" fill="#fff"/>
              <path id="パス_8414" data-name="パス 8414" d="M49.2,45.359,32.07,75.034,6.587,55.1,19.2,33.256Z" transform="translate(2.988 15.085)" fill="#fff"/>
              <path id="パス_8415" data-name="パス 8415" d="M32.037,69.753v34.266L0,99.5V74.273Z" transform="translate(0 31.64)" fill="#fff"/>
              <path id="パス_8416" data-name="パス 8416" d="M32.071,101.082,49.2,130.757,19.2,142.86,6.586,121.016Z" transform="translate(2.988 45.852)" fill="#fff"/>
              <path id="パス_8417" data-name="パス 8417" d="M45.359,127.174l29.675,17.134L55.1,169.791,33.256,157.18Z" transform="translate(15.085 57.687)" fill="#fff"/>
              <path id="パス_8418" data-name="パス 8418" d="M69.753,141.039h34.266L99.5,173.077H74.274Z" transform="translate(31.641 63.976)" fill="#fff"/>
              <path id="パス_8419" data-name="パス 8419" d="M101.082,144.308l29.675-17.134,12.1,30.007-21.843,12.612Z" transform="translate(45.852 57.687)" fill="#fff"/>
              <path id="パス_8420" data-name="パス 8420" d="M127.175,130.757l17.134-29.675,25.483,19.935L157.18,142.86Z" transform="translate(57.688 45.851)" fill="#fff"/>
              <path id="パス_8421" data-name="パス 8421" d="M141.04,104.019V69.753l32.038,4.521V99.5Z" transform="translate(63.977 31.64)" fill="#fff"/>
              <path id="パス_8422" data-name="パス 8422" d="M144.308,75.034,127.174,45.359l30.007-12.1L169.793,55.1Z" transform="translate(57.687 15.085)" fill="#fff"/>
              <path id="パス_8423" data-name="パス 8423" d="M130.758,49.2,101.082,32.069,121.017,6.586,142.86,19.2Z" transform="translate(45.852 2.988)" fill="#fff"/>
              <path id="パス_8424" data-name="パス 8424" d="M104.014,31.993a72.02,72.02,0,1,0,72.02,72.02,72.021,72.021,0,0,0-72.02-72.02m0,94.893a22.873,22.873,0,1,1,22.873-22.873,22.873,22.873,0,0,1-22.873,22.873" transform="translate(14.513 14.512)" fill="#b2b2b3"/>
              <path id="パス_8425" data-name="パス 8425" d="M93.386,55.423a37.963,37.963,0,1,0,37.962,37.962A37.961,37.961,0,0,0,93.386,55.423m0,56.967a19,19,0,1,1,19-19,19,19,0,0,1-19,19" transform="translate(25.141 25.14)" fill="#969093"/>
              <g id="グループ_8710" data-name="グループ 8710" transform="translate(234.974 139.068)" opacity="0.25">
                <g id="グループ_8709" data-name="グループ 8709">
                  <g id="グループ_8708" data-name="グループ 8708" clip-path="url(#clip-path-3)">
                    <path id="パス_8426" data-name="パス 8426" d="M161.649,95.816c.028-.048.052-.1.08-.145-.028.048-.052.1-.08.145" transform="translate(-161.649 -95.671)" fill="#070303"/>
                  </g>
                </g>
              </g>
              <g id="グループ_8713" data-name="グループ 8713" transform="translate(233.714 141.026)" opacity="0.25">
                <g id="グループ_8712" data-name="グループ 8712">
                  <g id="グループ_8711" data-name="グループ 8711" clip-path="url(#clip-path-4)">
                    <path id="パス_8427" data-name="パス 8427" d="M160.782,97.39l.222-.372-.222.372" transform="translate(-160.782 -97.018)" fill="#070303"/>
                  </g>
                </g>
              </g>
              <g id="グループ_8716" data-name="グループ 8716" transform="translate(231.454 144.625)" opacity="0.25">
                <g id="グループ_8715" data-name="グループ 8715">
                  <g id="グループ_8714" data-name="グループ 8714" clip-path="url(#clip-path-5)">
                    <path id="パス_8428" data-name="パス 8428" d="M159.227,99.907c.09-.137.177-.276.266-.413-.089.137-.176.276-.266.413" transform="translate(-159.227 -99.494)" fill="#070303"/>
                  </g>
                </g>
              </g>
              <g id="グループ_8719" data-name="グループ 8719" transform="translate(232.57 142.805)" opacity="0.25">
                <g id="グループ_8718" data-name="グループ 8718">
                  <g id="グループ_8717" data-name="グループ 8717" clip-path="url(#clip-path-6)">
                    <path id="パス_8429" data-name="パス 8429" d="M160,98.72l.3-.478c-.1.16-.2.318-.3.478" transform="translate(-159.995 -98.241)" fill="#070303"/>
                  </g>
                </g>
              </g>
              <g id="グループ_8722" data-name="グループ 8722" transform="translate(235.948 136.868)" opacity="0.25">
                <g id="グループ_8721" data-name="グループ 8721">
                  <g id="グループ_8720" data-name="グループ 8720" clip-path="url(#clip-path-7)">
                    <path id="パス_8430" data-name="パス 8430" d="M162.319,94.714c.1-.185.195-.371.292-.557-.1.186-.193.372-.292.557" transform="translate(-162.319 -94.157)" fill="#070303"/>
                  </g>
                </g>
              </g>
              <g id="グループ_8725" data-name="グループ 8725" transform="translate(230.324 146.678)" opacity="0.25">
                <g id="グループ_8724" data-name="グループ 8724">
                  <g id="グループ_8723" data-name="グループ 8723" clip-path="url(#clip-path-8)">
                    <path id="パス_8431" data-name="パス 8431" d="M158.45,100.967l.041-.061-.041.061" transform="translate(-158.45 -100.906)" fill="#070303"/>
                  </g>
                </g>
              </g>
              <g id="グループ_8728" data-name="グループ 8728" transform="translate(237.844 133.099)" opacity="0.25">
                <g id="グループ_8727" data-name="グループ 8727">
                  <g id="グループ_8726" data-name="グループ 8726" clip-path="url(#clip-path-9)">
                    <path id="パス_8432" data-name="パス 8432" d="M163.623,92.136c.092-.19.185-.381.275-.571-.09.19-.183.381-.275.571" transform="translate(-163.623 -91.565)" fill="#070303"/>
                  </g>
                </g>
              </g>
              <g id="グループ_8731" data-name="グループ 8731" transform="translate(192.891 160.383)" opacity="0.25">
                <g id="グループ_8730" data-name="グループ 8730">
                  <g id="グループ_8729" data-name="グループ 8729" clip-path="url(#clip-path-10)">
                    <path id="パス_8433" data-name="パス 8433" d="M132.7,129.8l21.974,8.864,12.611-21.845L159,110.335h0A101.129,101.129,0,0,1,132.7,129.8h0" transform="translate(-132.698 -110.334)" fill="#070303"/>
                  </g>
                </g>
              </g>
              <g id="グループ_8734" data-name="グループ 8734" transform="translate(236.897 134.963)" opacity="0.25">
                <g id="グループ_8733" data-name="グループ 8733">
                  <g id="グループ_8732" data-name="グループ 8732" clip-path="url(#clip-path-11)">
                    <path id="パス_8434" data-name="パス 8434" d="M162.972,93.477q.159-.314.317-.631-.157.316-.317.631" transform="translate(-162.972 -92.847)" fill="#070303"/>
                  </g>
                </g>
              </g>
              <g id="グループ_8737" data-name="グループ 8737" transform="translate(0 9.573)" opacity="0.25">
                <g id="グループ_8736" data-name="グループ 8736">
                  <g id="グループ_8735" data-name="グループ 8735" clip-path="url(#clip-path-12)">
                    <path id="パス_8435" data-name="パス 8435" d="M46.152,87.149c0-15.526,5.637-37.1,18.1-56.114A102.2,102.2,0,0,1,76.842,15.1L70.185,6.586,48.341,19.2,57.54,42A89.514,89.514,0,0,0,45.45,54.737L22.185,45.354,9.573,67.2,29.587,82.852a106.458,106.458,0,0,0-4.9,16.59L0,102.927v25.224l24.251,3.422a94.956,94.956,0,0,0,4.6,17.228L9.573,163.88l12.612,21.845L44.9,176.562a96.071,96.071,0,0,0,12.6,12.606l-9.161,22.713,21.843,12.611,15.072-19.269a95.065,95.065,0,0,0,17.237,4.606l3.42,24.236h25.224l3.42-24.236a95.1,95.1,0,0,0,17.237-4.606l15.071,19.269,21.845-12.611-9.161-22.713a96.272,96.272,0,0,0,11.623-11.446A100.816,100.816,0,0,1,46.152,87.149" transform="translate(0 -6.586)" fill="#070303"/>
                  </g>
                </g>
              </g>
              <g id="グループ_8740" data-name="グループ 8740" transform="translate(82.159 12.75)" opacity="0.25">
                <g id="グループ_8739" data-name="グループ 8739">
                  <g id="グループ_8738" data-name="グループ 8738" clip-path="url(#clip-path-13)">
                    <path id="パス_8436" data-name="パス 8436" d="M56.521,9.064c.112-.1.224-.2.337-.294-.113.1-.225.2-.337.294" transform="translate(-56.521 -8.771)" fill="#070303"/>
                  </g>
                </g>
              </g>
              <g id="グループ_8743" data-name="グループ 8743" transform="translate(83.294 11.742)" opacity="0.25">
                <g id="グループ_8742" data-name="グループ 8742">
                  <g id="グループ_8741" data-name="グループ 8741" clip-path="url(#clip-path-14)">
                    <path id="パス_8437" data-name="パス 8437" d="M57.3,8.4l.382-.323L57.3,8.4" transform="translate(-57.301 -8.078)" fill="#070303"/>
                  </g>
                </g>
              </g>
              <g id="グループ_8746" data-name="グループ 8746" transform="translate(84.511 10.76)" opacity="0.25">
                <g id="グループ_8745" data-name="グループ 8745">
                  <g id="グループ_8744" data-name="グループ 8744" clip-path="url(#clip-path-15)">
                    <path id="パス_8438" data-name="パス 8438" d="M58.139,7.7,58.5,7.4l-.358.294" transform="translate(-58.139 -7.402)" fill="#070303"/>
                  </g>
                </g>
              </g>
              <g id="グループ_8749" data-name="グループ 8749" transform="translate(81.07 13.808)" opacity="0.25">
                <g id="グループ_8748" data-name="グループ 8748">
                  <g id="グループ_8747" data-name="グループ 8747" clip-path="url(#clip-path-16)">
                    <path id="パス_8439" data-name="パス 8439" d="M55.772,9.7c.074-.067.151-.134.225-.2-.074.068-.151.135-.225.2" transform="translate(-55.772 -9.499)" fill="#070303"/>
                  </g>
                </g>
              </g>
              <g id="グループ_8752" data-name="グループ 8752" transform="translate(222.124 157.117)" opacity="0.25">
                <g id="グループ_8751" data-name="グループ 8751">
                  <g id="グループ_8750" data-name="グループ 8750" clip-path="url(#clip-path-17)">
                    <path id="パス_8440" data-name="パス 8440" d="M152.809,108.2l.1-.116-.1.116" transform="translate(-152.809 -108.088)" fill="#070303"/>
                  </g>
                </g>
              </g>
              <g id="グループ_8755" data-name="グループ 8755" transform="translate(220.636 158.697)" opacity="0.25">
                <g id="グループ_8754" data-name="グループ 8754">
                  <g id="グループ_8753" data-name="グループ 8753" clip-path="url(#clip-path-18)">
                    <path id="パス_8441" data-name="パス 8441" d="M151.785,109.343c.052-.055.1-.112.156-.169-.051.057-.1.113-.156.169" transform="translate(-151.785 -109.174)" fill="#070303"/>
                  </g>
                </g>
              </g>
              <g id="グループ_8758" data-name="グループ 8758" transform="translate(226.344 151.928)" opacity="0.25">
                <g id="グループ_8757" data-name="グループ 8757">
                  <g id="グループ_8756" data-name="グループ 8756" clip-path="url(#clip-path-19)">
                    <path id="パス_8442" data-name="パス 8442" d="M155.712,104.777c.067-.086.134-.173.2-.259-.068.086-.135.173-.2.259" transform="translate(-155.712 -104.518)" fill="#070303"/>
                  </g>
                </g>
              </g>
              <g id="グループ_8761" data-name="グループ 8761" transform="translate(227.639 150.214)" opacity="0.25">
                <g id="グループ_8760" data-name="グループ 8760">
                  <g id="グループ_8759" data-name="グループ 8759" clip-path="url(#clip-path-20)">
                    <path id="パス_8443" data-name="パス 8443" d="M156.6,103.621c.07-.094.141-.188.211-.282-.07.094-.141.188-.211.282" transform="translate(-156.603 -103.339)" fill="#070303"/>
                  </g>
                </g>
              </g>
              <g id="グループ_8764" data-name="グループ 8764" transform="translate(229.045 148.533)" opacity="0.25">
                <g id="グループ_8763" data-name="グループ 8763">
                  <g id="グループ_8762" data-name="グループ 8762" clip-path="url(#clip-path-21)">
                    <path id="パス_8444" data-name="パス 8444" d="M157.57,102.226l.029-.044-.029.044" transform="translate(-157.57 -102.183)" fill="#070303"/>
                  </g>
                </g>
              </g>
              <path id="パス_8445" data-name="パス 8445" d="M148.178,34.237A11.335,11.335,0,1,1,136.842,22.9a11.335,11.335,0,0,1,11.335,11.335" transform="translate(56.931 10.389)" fill="#34317e"/>
              <g id="グループ_8767" data-name="グループ 8767" transform="translate(190.546 34.91)" opacity="0.25">
                <g id="グループ_8766" data-name="グループ 8766">
                  <g id="グループ_8765" data-name="グループ 8765" clip-path="url(#clip-path-22)">
                    <path id="パス_8446" data-name="パス 8446" d="M142.3,29.623a5.607,5.607,0,1,1-5.607-5.607,5.607,5.607,0,0,1,5.607,5.607" transform="translate(-131.085 -24.016)" fill="#fff"/>
                  </g>
                </g>
              </g>
              <g id="グループ_8770" data-name="グループ 8770" transform="translate(194.052 36.795)" opacity="0.5">
                <g id="グループ_8769" data-name="グループ 8769">
                  <g id="グループ_8768" data-name="グループ 8768" clip-path="url(#clip-path-23)">
                    <path id="パス_8447" data-name="パス 8447" d="M138.965,28.047a2.734,2.734,0,1,1-2.734-2.734,2.734,2.734,0,0,1,2.734,2.734" transform="translate(-133.497 -25.313)" fill="#fff"/>
                  </g>
                </g>
              </g>
              <g id="グループ_8773" data-name="グループ 8773" transform="translate(182.439 35.467)" opacity="0.25">
                <g id="グループ_8772" data-name="グループ 8772">
                  <g id="グループ_8771" data-name="グループ 8771" clip-path="url(#clip-path-24)">
                    <path id="パス_8448" data-name="パス 8448" d="M139.657,42a11.334,11.334,0,0,1-9.446-17.6,11.334,11.334,0,1,0,16.075,15.456A11.279,11.279,0,0,1,139.657,42" transform="translate(-125.508 -24.399)" fill="#070303"/>
                  </g>
                </g>
              </g>
              <path id="パス_8449" data-name="パス 8449" d="M108.859,88.171A20.542,20.542,0,1,1,88.316,67.629a20.542,20.542,0,0,1,20.542,20.542" transform="translate(30.743 30.677)" fill="#0d121d"/>
            </g>
          </g>
        </g>
      </g>
    </g>
    <g id="テキスト" transform="translate(0 95.5)">
      <text id="ピタゴラ" transform="translate(884.5 6621.982)" fill="#fff" font-size="50" font-family="Corporate-Logo-Bold-ver2, Corporate Logo ver2"><tspan x="0" y="0">ピタゴラ</tspan></text>
    </g>
  </g>
</svg>
