<svg xmlns="http://www.w3.org/2000/svg" xmlns:xlink="http://www.w3.org/1999/xlink" width="132.739" height="143.788" viewBox="0 0 132.739 143.788">
  <defs>
    <clipPath id="clip-path">
      <rect id="長方形_148" data-name="長方形 148" width="78.08" height="114.2" transform="translate(-5.667 108.501) rotate(-72)" fill="none"/>
    </clipPath>
  </defs>
  <g id="TOPへ" transform="translate(5.667 -0.004)">
    <g id="グループ_8449" data-name="グループ 8449" clip-path="url(#clip-path)">
      <path id="てかり" d="M58.52,88.37l1.26.41a6.61,6.61,0,0,1,8.34-4.21l.42-1.26h0a7.93,7.93,0,0,0-10,5.06h0" transform="translate(-5.67)" fill="#fff"/>
      <path id="パス_8198" data-name="パス 8198" d="M112,121l-14.49-9.85C102.8,91.5,92.68,71.2,74.12,64.89a11,11,0,0,1,11.75-6.37.19.19,0,0,0,0,.08,3.47,3.47,0,1,0,.25-.92,7.9,7.9,0,0,0-1-.13,11.89,11.89,0,0,0-11.49,6.3c-.13.25-.24.51-.36.77C54.66,58.79,34.55,69.09,27.18,88l-17.5-.69a3.52,3.52,0,0,0-3.71,3A2.85,2.85,0,0,0,7.15,94l14.26,9a3.45,3.45,0,0,0,.61.3c-.12,4.74,3.35,9.42,8.75,11.2a13,13,0,0,0,10.53-.92c1.4,4.46,5.87,8.68,12,10.7S65.23,125.63,69,123a13,13,0,0,0,7.78,6.66c5.06,1.67,10.27.28,13.15-3.09H90l19.21,1a5.091,5.091,0,0,0,.55,0A3.63,3.63,0,0,0,112,121M48,86.5c-3,3.62-7.19,5-9.44,3S36.89,83,39.85,79.39s7.2-5,9.44-3S51,82.87,48,86.5M63,97.69a8.32,8.32,0,1,1,10.2-5.78,1.3,1.3,0,0,1-.11.37A8.14,8.14,0,0,1,63,97.69m22.91,7.42c-3-.14-5.12-4-4.8-8.74s3-8.38,6-8.25,5.12,4,4.8,8.73-3,8.39-6,8.26" transform="translate(-5.67)" fill="#fff"/>
    </g>
    <g id="TOPへ-2">
      <text id="TOPへ-2-2" data-name="TOPへ" transform="translate(30.79 43.58)" fill="#fff" font-size="18" font-family="Corporate-Logo-Medium-ver2, Corporate Logo ver2" letter-spacing="0.1em"><tspan x="0" y="0">TOPへ</tspan></text>
    </g>
    <path id="パス_8252" data-name="パス 8252" d="M37.34,20.45,58.09,2.64,78.83,20.45" fill="none" stroke="#fff" stroke-miterlimit="10" stroke-width="4"/>
  </g>
</svg>
