<svg xmlns="http://www.w3.org/2000/svg" width="116.469" height="99.853" viewBox="0 0 116.469 99.853">
  <g id="ロケット_フィールドワーク" transform="translate(-1675.866 -2311.05)">
    <path id="パス_8232" data-name="パス 8232" d="M176.242,335.517c-9.016,7.921-16.506,9.563-23.88,5.4-7.6-4.293-9.86-11.44-7.413-23.778-11.494-5.559-19.165-14.122-21.229-27.242-2.643-16.765,8.273-33.623,24.67-38.182a60.37,60.37,0,0,0,13.895-5.927,17.267,17.267,0,0,1,26.257,13.527c.141,1.853,0,3.722,0,5.622,24.771-2.408,40.214,4.973,47.971,22.746a39.878,39.878,0,0,1-9.876,45.438C212.883,345.384,195.008,346.331,176.242,335.517Z" transform="translate(1552.54 2067.768)" fill="#fff"/>
    <text id="フィールド_ワーク" data-name="フィールド
ワーク" transform="translate(1704.403 2364.188)" fill="#231815" font-size="20" font-family="Corporate-Logo-Bold-ver2, Corporate Logo ver2"><tspan x="0" y="0" font-weight="bold">フィールド</tspan><tspan x="0" y="28" font-weight="bold">ワーク</tspan></text>
  </g>
</svg>
