<svg xmlns="http://www.w3.org/2000/svg" width="88.924" height="91.65" viewBox="0 0 88.924 91.65">
  <g id="ロケット_ピタゴラ" transform="translate(-1585.286 -2364.783)">
    <path id="パス_8229" data-name="パス 8229" d="M73.966,383.808c1.262,3.721,2.437,7.21,3.98,11.789a17.655,17.655,0,0,1-2.61-1.507c-7.7-8-14.991-8.963-24.588-3.194-13.765,8.278-30.133,6.338-41.2-4.838-15.056-15.2-13.029-43.515,11.292-54.237.584-4.1.671-8.169,1.8-11.933a22.207,22.207,0,0,1,22.079-15.531A22.025,22.025,0,0,1,65.7,321.285a9.137,9.137,0,0,0,5.538,7.03c20.954,10.268,23.845,37.9,5.725,52.838C75.847,382.077,74.795,383.072,73.966,383.808Z" transform="translate(1585.285 2060.44)" fill="#fff"/>
    <text id="ピタゴラ" transform="translate(1599.748 2427.691)" fill="#231815" font-size="20" font-family="Corporate-Logo-Bold-ver2, Corporate Logo ver2"><tspan x="0" y="0" font-weight="bold">ピタゴラ</tspan></text>
  </g>
</svg>
