<svg xmlns="http://www.w3.org/2000/svg" width="66.667" height="99.493" viewBox="0 0 66.667 99.493">
  <g id="ロケット本体" transform="translate(-76.745 -446.005)">
    <path id="パス_8225" data-name="パス 8225" d="M115.913,549.517a32.08,32.08,0,0,1-8.386-14.2c-.224-.772-.317-1.695-1.37-1.774s-1.291.829-1.586,1.579a27,27,0,0,0,7.744,30.753c.173-.721.31-1.211.411-1.709A71.587,71.587,0,0,1,116.4,551.9,1.853,1.853,0,0,0,115.913,549.517Z" transform="translate(-25.889 -80.143)" fill="#fff"/>
    <path id="パス_8226" data-name="パス 8226" d="M185.092,535.259c-.3-.764-.411-1.81-1.622-1.7-1.067.094-1.139,1.009-1.37,1.781a32.966,32.966,0,0,1-6.706,12.424c-.829.959-1.73,1.86-2.653,2.841a84.917,84.917,0,0,1,4.514,15.286c.425-.353.62-.512.808-.678a26.982,26.982,0,0,0,7.03-29.952Z" transform="translate(-43.567 -80.147)" fill="#fff"/>
    <path id="パス_8227" data-name="パス 8227" d="M132.37,643.72a7.462,7.462,0,0,0,.4.779c1.536,2.163,2.971,4.413,4.644,6.49a47.284,47.284,0,0,0,4.485,4.593c1.139,1.067,1.594,1.017,2.8.115.166-.122.324-.26.476-.389a45.489,45.489,0,0,0,8.955-11.184c.043-.072,0-.195,0-.382Z" transform="translate(-33.242 -110.879)" fill="#fff"/>
    <path id="パス_8228" data-name="パス 8228" d="M135.409,527.5a22.948,22.948,0,0,0-5.264,8.537,13.368,13.368,0,0,0,1.046,10.239c.065.13.13.267.2.4h-2.019c-.822,1.954-1.716,3.85-2.423,5.768a90.805,90.805,0,0,0-5.047,32.649,49.6,49.6,0,0,0,4.326,18.834,1.586,1.586,0,0,0,1.68,1.182q12.553-.051,25.121,0a1.392,1.392,0,0,0,1.493-.981,51.318,51.318,0,0,0,4.326-19.288,99.162,99.162,0,0,0-.606-12.979,82.612,82.612,0,0,0-4.752-20.355c-.635-1.651-1.442-3.252-2.113-4.838H148.5a3.258,3.258,0,0,0,.3-.5,13.527,13.527,0,0,0,.281-11.977,28.356,28.356,0,0,0-5.819-8.018,21.4,21.4,0,0,0-2.963-2.884m-.4,13.7a19.037,19.037,0,0,1,3.375,4.73,7.434,7.434,0,0,1,.49,4.954h-7.578c-.9-4.045,1.341-6.821,3.742-9.684Zm.548,26.809a4.449,4.449,0,1,1-4.017,2.135A4.449,4.449,0,0,1,140.442,563.8Zm0,32.166a6.619,6.619,0,1,1,6.569-6.67A6.619,6.619,0,0,1,140.442,595.965Z" transform="translate(-30.308 -77.285)" fill="#fff"/>
  </g>
</svg>
