<svg xmlns="http://www.w3.org/2000/svg" width="101.824" height="87.59" viewBox="0 0 101.824 87.59">
  <g id="ロケット_クラファン" transform="translate(-1686.976 -2448.077)">
    <path id="パス_8245" data-name="パス 8245" d="M189.205,406.422a10.213,10.213,0,0,1-9.222-.046c-20.717-9-45.063,1.577-50.568,22.3-4.151,15.666,1.442,28.573,14.979,38.207-2.467,5.729-3.464,10.4-3.077,14.2.484,4.758,2.226,7.975,4.093,9.167l.542.486c-.5-1.43-.426-4.354-.126-7.022a15.586,15.586,0,0,1,5.97-10.258,12.609,12.609,0,0,0-.687,4.116,13.259,13.259,0,0,0,2.593,7.691,17.349,17.349,0,0,1,2.255-7.462,17.532,17.532,0,0,1,2.9-3.667,52.848,52.848,0,0,0,3.687,4.033c8.815,7.737,18.975,10.588,30.538,6.756,11.254-3.731,17.785-11.587,19.285-22.642a11.685,11.685,0,0,1,5.235-8.149c12.167-8.137,15.86-23.678,8.547-35.969s-23.259-17.345-36.908-11.7Z" transform="translate(1558.905 2044.929)" fill="#fff"/>
    <text id="クラファン" transform="translate(1700.903 2495.362)" fill="#231815" font-size="20" font-family="Corporate-Logo-Bold-ver2, Corporate Logo ver2"><tspan x="0" y="0" font-weight="bold">クラファン</tspan></text>
  </g>
</svg>
