<svg xmlns="http://www.w3.org/2000/svg" width="91.234" height="90.174" viewBox="0 0 91.234 90.174">
  <g id="ロケット_Youtube" transform="translate(-1628.594 -2106.997)">
    <path id="パス_8231" data-name="パス 8231" d="M122.756,80.09l7.275,10.095a17.394,17.394,0,0,0,.3-2.992c-2.033-10.924,1.442-17.413,11.7-21.862C156.775,58.949,164.714,44.513,162.06,29,158.455,7.913,134.249-6.9,111.378,6.651c-3.67-1.911-7.037-4.2-10.751-5.48A22.109,22.109,0,0,0,75.152,10.1a22.093,22.093,0,0,0,1.565,26.9,9.15,9.15,0,0,1,2.495,8.595c-3.843,23.016,16.952,41.439,39.658,35.4C120.254,80.609,121.674,80.335,122.756,80.09Z" transform="translate(1557.261 2106.986)" fill="#fff"/>
    <g id="レイヤー_2" data-name="レイヤー 2" transform="translate(1648.005 2128.313)">
      <g id="Layer_1" data-name="Layer 1">
        <path id="パス_8235" data-name="パス 8235" d="M51.32,5.727A6.568,6.568,0,0,0,46.667,1.1C42.578,0,26.195,0,26.195,0S9.807,0,5.727,1.1A6.559,6.559,0,0,0,1.1,5.727C0,9.811,0,18.337,0,18.337s0,8.526,1.1,12.61a6.559,6.559,0,0,0,4.632,4.632c4.084,1.078,20.468,1.078,20.468,1.078s16.388,0,20.472-1.1a6.568,6.568,0,0,0,4.653-4.614c1.091-4.084,1.091-12.61,1.091-12.61S52.389,9.811,51.32,5.727Z" fill="red"/>
        <path id="パス_8236" data-name="パス 8236" d="M48.59,40.015,62.2,32.158,48.59,24.3Z" transform="translate(-27.635 -13.82)" fill="#fff"/>
      </g>
    </g>
  </g>
</svg>
