<svg xmlns="http://www.w3.org/2000/svg" viewBox="0 0 1011.68 778.53"><defs><style>.cls-1{fill:#fff;}.cls-2{fill:#efefef;}</style></defs><g id="レイヤー_2" data-name="レイヤー 2"><g id="レイヤー_2-2" data-name="レイヤー 2"><path class="cls-1" d="M759.44,138.63l-3.81-24.44h0a3,3,0,0,1-.09-.29c-.31-1.68-.6-3.36-1-5a5.6,5.6,0,0,0-.57-1.59,5.77,5.77,0,0,0-3.22-2.52,9.24,9.24,0,0,0-7.18.44,7.28,7.28,0,0,0-3.49,3.2,4.7,4.7,0,0,0-.51,3.16c.09.49.17,1,.26,1.47q2.46,13.13,4.91,26.25a3.15,3.15,0,0,0,1.76,2.34,4.86,4.86,0,0,0,3.18.43c2.12-.37,4.24-.78,6.35-1.18a5.41,5.41,0,0,0,2.24-1A4.64,4.64,0,0,0,759.44,138.63Z"/><path class="cls-1" d="M897.33,69.06a2.49,2.49,0,0,0-.81-1,18.17,18.17,0,0,0-7.76-3.39,17.73,17.73,0,0,0-9.27.75,2,2,0,0,0-1.17,1.31.38.38,0,0,0,.16.52.39.39,0,0,0,.26,0,3.9,3.9,0,0,0,.57-.13,20.78,20.78,0,0,1,13,.7,21.77,21.77,0,0,1,4.49,2.4C897.45,70,897.58,69.62,897.33,69.06Z"/><path class="cls-1" d="M787.46,176.94a5,5,0,0,0,1.26-2.33.87.87,0,0,1,.4-.59l.08-.05-18.59-19.3-.12.08-.15-.11c-.94-.89-1.89-1.78-2.82-2.68a4.78,4.78,0,0,0-1.5-1,5.54,5.54,0,0,0-3.41-.28,9,9,0,0,0-5.62,3.81,7.8,7.8,0,0,0-1.57,4.9,4.87,4.87,0,0,0,1.23,3.23c.35.39.75.75,1.14,1.12q2.67,2.57,5.37,5.12l14.09,13.46a3.21,3.21,0,0,0,3,.86,4.89,4.89,0,0,0,2.58-1.44C784.42,180.15,785.94,178.55,787.46,176.94Z"/><path class="cls-1" d="M906.74,142.54l-.22-.4a4.27,4.27,0,0,0,2.52-.52l12.22-6.78a4.29,4.29,0,0,0,1.68-5.84h0l-14.29-25.79a4.31,4.31,0,0,0-5.85-1.68h0l-12.22,6.78a4.24,4.24,0,0,0-1.78,1.87l-.22-.41a2.85,2.85,0,0,0-3.87-1.11L823.6,142.54a2.83,2.83,0,0,0-1.11,3.86l13.26,23.92a21.82,21.82,0,0,1-2.48.6,16.19,16.19,0,0,1-4.66.22,11.64,11.64,0,0,1-2.33-.49,10,10,0,0,1-2.21-1.05,9.37,9.37,0,0,1-1.89-1.61,10.43,10.43,0,0,1-1.42-2,15.09,15.09,0,0,1-1.34-3.37,30.23,30.23,0,0,1-.94-5.76c-.15-2-.19-4-.22-5.81A43.45,43.45,0,0,1,820,138.36c.32-.37.64-.73,1-1.09,0,.12,0,.24,0,.35a37.87,37.87,0,0,0,7.63,1.26l56.4-31.26a2.81,2.81,0,0,1,2-.29,40.25,40.25,0,0,0,3-6.34,1.81,1.81,0,0,0-.18-.27,20.27,20.27,0,0,0,8.83-3.8,19.79,19.79,0,0,0,5.77-6.73.93.93,0,0,1,.67-.53q6.19-1.53,12.39-3.09l2-.5L919,84.79l-13.75,3.44a20.25,20.25,0,0,0,.34-14.34,19.94,19.94,0,0,0-9.1-11,19.55,19.55,0,0,0-12.62-2.58c-7.15.94-12.38,4.74-15.88,11.1l-2.51-4.54-4.62,2.56,1.09,2-4.17-.05c0-.25.07-.5.1-.74a33.2,33.2,0,0,0,.1-8.85,34.33,34.33,0,0,1,0-9.28,35.47,35.47,0,0,0,.07-9.6,21.08,21.08,0,0,1,.52-9.11,8.18,8.18,0,0,0-.06-4.39c-.08-.36-.23-.65-.72-.6a2.86,2.86,0,0,1,.5-.42c.21-.14.44-.25.63-.4a9.92,9.92,0,0,0,3.57-6.39,4.17,4.17,0,0,0,0-1.32A1.4,1.4,0,0,0,861,18.91a1.48,1.48,0,0,0-.65.19l-.29.12-.35.14c0-.19,0-.33-.06-.47a9.53,9.53,0,0,0-.73-2.72,1.11,1.11,0,0,1-.07-.82,15.09,15.09,0,0,0,.48-5.14,13.1,13.1,0,0,1,.13-3.13,13,13,0,0,0-.14-5.31A5.06,5.06,0,0,0,858.79.5a.85.85,0,0,0-1.12-.43.92.92,0,0,0-.31.24,2.13,2.13,0,0,0-.42.48,10.69,10.69,0,0,0-.71,1.44,16.39,16.39,0,0,0-.89,5.68,2.22,2.22,0,0,1-.08.68,17,17,0,0,0-.88,5.74c0,.11,0,.21,0,.32-.14-.37-.2-.74-.33-1.08a1.12,1.12,0,0,0-1.38-.77,1.59,1.59,0,0,0-.27.12,1.78,1.78,0,0,0-.48.33c-.28.27-.55.56-.82.84a1.93,1.93,0,0,1-1.63-.55,1.24,1.24,0,0,0-1.75-.06l0,0a2.84,2.84,0,0,0-.49.49.65.65,0,0,1-.61.31l-.29-.27a1.39,1.39,0,0,0-2.23,0,5.53,5.53,0,0,0-.9,1.44,12.42,12.42,0,0,0-.89,5.08,12.37,12.37,0,0,0,.91,5,3.19,3.19,0,0,1,.23.76,2.56,2.56,0,0,0,.58,1.19c.12.15.27.29.36.39a2.42,2.42,0,0,0-.44.56,9.25,9.25,0,0,0-.67,4.82c.09.62.2,1.23.26,1.85a18.42,18.42,0,0,1-.27,6.7c-.21.84-.48,1.68-.65,2.54a29.57,29.57,0,0,0-.46,7,31.54,31.54,0,0,1-.7,8.45,36.67,36.67,0,0,0-1,9.45c0,.71.08,1.43,0,2.14-.07,1.32-.2,2.63-.31,4a.59.59,0,0,1-.39.57c-2.25.9-4.44,1.94-6.6,3a86.23,86.23,0,0,0-9.65,5.76,73,73,0,0,0-7.36,5.77,48.76,48.76,0,0,0-7.1,7.75c-.58.81-1.11,1.66-1.67,2.5l-.14,0a6.36,6.36,0,0,0-3.92,1.2,11.8,11.8,0,0,1-3,1.51,29.23,29.23,0,0,1-5.55,1.13,36.56,36.56,0,0,0-9.37,2.33,36.42,36.42,0,0,1-8.47,2.2c-1.07.15-2.15.28-3.22.47a44.92,44.92,0,0,0-7.78,2.33,34.34,34.34,0,0,1-4.11,1.16,11.27,11.27,0,0,1-3.62.13,8,8,0,0,0-1.69,0l3.81,24.5a6.86,6.86,0,0,0,4-1.08,34.5,34.5,0,0,1,3.35-1.77,12.57,12.57,0,0,1,5.21-1.27,25.31,25.31,0,0,0,8.78-2,38.25,38.25,0,0,1,8.61-2.28c1.39-.2,2.78-.43,4.17-.64l.44-.06c-.6.77-1.17,1.48-1.71,2.2a42.62,42.62,0,0,1-7,7.36,44.28,44.28,0,0,0-6.55,6.65c-.91,1.14-1.8,2.31-2.73,3.43a16.46,16.46,0,0,1-5.48,4.46,5.2,5.2,0,0,0-.7.45l18.56,19.25a7.14,7.14,0,0,0,1.34-1.89c.22-.43.43-.87.66-1.28.48-.82.94-1.65,1.46-2.43a15.38,15.38,0,0,1,3.94-4.18c.63-.44,1.26-.89,1.85-1.38a32.57,32.57,0,0,0,5.29-5.71,41.59,41.59,0,0,1,5.2-5.81c1-1,2.11-1.81,3.15-2.74a44.75,44.75,0,0,0,5.34-5.67,44.56,44.56,0,0,0-.91,9.64,75.67,75.67,0,0,0,.43,8,28.85,28.85,0,0,0,.79,4,17.52,17.52,0,0,0,1.48,3.71,12.55,12.55,0,0,0,1.64,2.31,10.84,10.84,0,0,0,2.22,1.89,11.33,11.33,0,0,0,2.61,1.23,14.25,14.25,0,0,0,4.72.64,22.38,22.38,0,0,0,6-1.06l4.11,7.41a2.83,2.83,0,0,0,3.86,1.1h0l61.12-33.87a2.84,2.84,0,0,0,1.1-3.86h0ZM873.55,77.6a21.64,21.64,0,0,1-3.13-4.51c-.14-.29-.25-.59-.4-.88s0-.37.11-.53A18.13,18.13,0,0,1,898,67.11c.31.27.61.56.9.85a18.79,18.79,0,0,1,2.26,2.84A18.27,18.27,0,0,1,903.87,78a.93.93,0,0,1-.35,1,22.13,22.13,0,0,1-4.07,2.93A21.1,21.1,0,0,1,873.55,77.6Zm9.56,17.32a5.05,5.05,0,0,1,1.95-6.8,5,5,0,1,1-1.95,6.8Zm22.12,48.39a1.13,1.13,0,1,1-1.53-.44h0A1.12,1.12,0,0,1,905.23,143.31Zm9.84-18.73a3.35,3.35,0,0,1,4.56,1.31l1.83,3.3a3.35,3.35,0,0,1-1.31,4.56l-3.29,1.83a3.36,3.36,0,0,1-4.56-1.31l-1.83-3.3a3.35,3.35,0,0,1,1.3-4.56Zm-24.48,13L897,149.15l-1.48.81-6.41-11.56Zm-2.75,1.52,6.41,11.57-1.47.82-6.41-11.56Zm-2.75,1.53,6.41,11.57L890,153l-6.41-11.56Zm1.81-30.37a1.13,1.13,0,1,1-1.53-.43A1.12,1.12,0,0,1,886.9,110.26Zm-63.21,35a1.12,1.12,0,1,1,1.53.44h0A1.12,1.12,0,0,1,823.69,145.3Zm52.64-21.68.25.1-2.34,5.44-.1,0-.1-.18Zm1.49,12.11-.7-1.26.09-.05.7,1.26Zm1.82-9.52-.13-.24,1.18-.65.13.24Zm-8.5-2.52-.67-1.22.09,0,.67,1.22Zm7.44,13.42-.76-1.37a7.16,7.16,0,0,0,1.48-1.07l-.51-.54L879,134l.52.53a7.43,7.43,0,0,0,1-1.32l-.62-.38.13-.23.63.38a7.85,7.85,0,0,0,.7-1.6l-1.32-.38.07-.26,1.32.38a7.61,7.61,0,0,0,.26-1.7H881v-.27h.76a7.6,7.6,0,0,0-.19-1.71l-.74.18-.06-.26.73-.18a7.69,7.69,0,0,0-1.78-3.22l-.54.53-.19-.2.54-.52a8.62,8.62,0,0,0-1.34-1.07l-.39.65-.23-.14.39-.64a7.11,7.11,0,0,0-1.58-.68l-.38,1.33-.26-.07.38-1.34a7.42,7.42,0,0,0-1.69-.25l0,.76h-.26v-.76a7.51,7.51,0,0,0-1.7.19l.17.73-.26.07-.18-.73a7.76,7.76,0,0,0-1.69.68l-.76-1.37,7.9-4.37,8.88,16Zm2.28,5.86,1.48-.81,6.41,11.56-1.47.82Zm-25.18,19.95a1.75,1.75,0,1,1-.68,2.38,1.75,1.75,0,0,1,.68-2.38ZM842,178.35a1.13,1.13,0,1,1,1.53.44h0A1.13,1.13,0,0,1,842,178.35Zm11.35-4.7a1.92,1.92,0,0,1-2.61-.75h0l-1.21-2.18a1.93,1.93,0,0,1,.74-2.62h0l1.57-.87a1.93,1.93,0,0,1,2.62.75l1.21,2.18a1.93,1.93,0,0,1-.75,2.62Zm3.95-4.19a1.75,1.75,0,1,1,2.38.68,1.74,1.74,0,0,1-2.38-.68Z"/></g><g id="レイヤー_1-2" data-name="レイヤー 1"><ellipse class="cls-1" cx="505.58" cy="418.65" rx="359.65" ry="361.8" transform="translate(-29.71 798.56) rotate(-74.99)"/><path class="cls-2" d="M865.15,456.58a27.59,27.59,0,0,1,0,5.06C936.4,502.79,972.93,540.5,957.89,565c-30,48.74-253.57,26.38-499.39-50S37.71,337.27,67.69,288.53c14.88-24.18,77.39-30.86,166.63-22.13a44.31,44.31,0,0,1,4.54-3.66c-125.47-17.23-215.8-12-235.09,19.39C-30,337.13,167.32,451.49,444.6,537.6S974.09,648.93,1007.91,594C1027.39,562.28,970.17,510.91,865.15,456.58Z"/></g></g></svg>